<svg width="30" height="30" viewBox="0 0 30 30" fill="none" xmlns="http://www.w3.org/2000/svg">
<path d="M27.1149 6.20367L25.2474 0.600996C25.1278 0.242109 24.7919 0 24.4136 0H5.58552C5.20724 0 4.87138 0.242109 4.75173 0.600996L2.86882 6.24943C2.77953 6.51744 2.82441 6.81211 2.98964 7.04133C3.15482 7.27049 3.42019 7.40631 3.70267 7.40631H5.64793V22.5938H4.64398C4.15859 22.5938 3.76507 22.9873 3.76507 23.4727C3.76507 23.958 4.15859 24.3516 4.64398 24.3516H5.64787V29.1211C5.64787 29.6065 6.04138 30 6.52677 30H23.4721C23.9575 30 24.351 29.6065 24.351 29.1211V24.3516H25.355C25.8404 24.3516 26.2339 23.9581 26.2339 23.4727C26.2339 22.9873 25.8404 22.5938 25.355 22.5938H24.351V7.40631H26.2964C26.2968 7.40631 26.2972 7.40631 26.2976 7.40631C26.783 7.40631 27.1765 7.01279 27.1765 6.5274C27.1764 6.41309 27.1546 6.30387 27.1149 6.20367ZM22.5932 22.5938H22.5932H7.40568V7.40631H14.1205V11.2969H12.1753C11.6899 11.2969 11.2964 11.6904 11.2964 12.1758V17.8241C11.2964 18.3096 11.6899 18.703 12.1753 18.703H17.8238C18.3092 18.703 18.7027 18.3096 18.7027 17.8241V12.1758C18.7027 11.6904 18.3092 11.2969 17.8238 11.2969H15.8784V7.40631H22.5932V22.5938V22.5938Z" fill="white"/>
</svg>
