<svg width="30" height="30" viewBox="0 0 30 30" fill="none" xmlns="http://www.w3.org/2000/svg">
<g clip-path="url(#clip0)">
<path d="M8.1861 18.597C8.95482 19.2482 9.46455 20.1304 9.64872 21.0935H14.1212V14.8296C12.6065 14.4383 11.4844 13.0603 11.4844 11.4251H13.2422C13.2422 12.3943 14.0308 13.1829 15.0001 13.1829C15.9694 13.1829 16.758 12.3943 16.758 11.4251H18.5159C18.5159 13.0602 17.3937 14.4383 15.8791 14.8296V21.0934H20.3525C20.5387 20.1306 21.0533 19.244 21.8293 18.5841C24.1922 16.5749 25.5474 13.6451 25.5474 10.5461C25.5474 1.09152 14.0168 -3.55169 7.45037 3.19424C3.16489 7.59703 3.53123 14.6539 8.1861 18.597Z" fill="white"/>
<path d="M15.0001 30C16.9387 30 18.5159 28.4228 18.5159 26.4842H11.4844C11.4844 28.4228 13.0615 30 15.0001 30Z" fill="white"/>
<path d="M9.72681 22.8513H20.2741V24.7264H9.72681V22.8513Z" fill="white"/>
</g>
<defs>
<clipPath id="clip0">
<rect width="30" height="30" fill="white"/>
</clipPath>
</defs>
</svg>
