<svg width="29" height="17" viewBox="0 0 29 17" fill="none" xmlns="http://www.w3.org/2000/svg">
<path fill-rule="evenodd" clip-rule="evenodd" d="M11.1963 3.83144C11.2405 4.87366 11.3018 6.95552 10.824 7.7237C10.1661 8.78122 8.8563 6.81042 8.52012 6.29032C7.95442 5.41598 7.42225 4.52404 6.93113 3.56143C6.68774 3.08517 6.46285 2.58699 6.23767 2.07929C5.96046 1.45246 5.93097 1.10428 5.27335 0.869469C4.87444 0.727543 3.67222 0.807737 3.15826 0.808314C2.44457 0.810622 1.72104 0.806295 1.00936 0.820141C0.263863 0.834853 -0.228702 1.09245 0.108925 1.88371C0.488177 2.76729 1.05359 3.93615 1.50135 4.80962C2.25725 6.28368 2.95765 7.56043 3.83757 8.9667C5.44794 11.5439 7.34767 14.14 10.3343 15.4315C11.3564 15.8737 12.6188 16.2248 13.8967 16.2115C14.4381 16.2066 15.5464 16.2808 15.9814 16.127C16.6842 15.8775 16.598 15.458 16.6599 14.6648C16.707 14.0636 16.8362 13.3837 17.1259 12.9559C17.9364 11.7616 19.0308 13.204 19.6332 13.8441C20.3368 14.5918 20.9045 15.4338 21.87 15.9262C22.5571 16.2764 22.8115 16.275 23.6639 16.2603L25.8114 16.23C26.478 16.2233 27.2214 16.2787 27.8053 16.0682C28.3887 15.8576 28.635 15.366 28.3011 14.7037C28.0658 14.2373 27.7287 13.7544 27.4307 13.4027C27.1197 13.0355 26.756 12.5999 26.3976 12.2607L25.855 11.7161C25.5599 11.4083 25.08 10.9963 24.7531 10.6724C24.0909 10.0167 23.4708 9.55892 24.0091 8.5516C24.2444 8.1114 24.6175 7.64063 24.9066 7.27399C25.875 6.04426 27.8843 3.48268 28.3453 2.07352C28.5959 1.30678 28.4557 0.934373 27.6712 0.829083C27.4059 0.793602 23.7295 0.840911 23.3699 0.84293C22.5556 0.849565 22.0703 0.696678 21.7327 1.37428C21.6124 1.61573 21.5211 1.89179 21.4141 2.14708L21.0918 2.87921C20.5146 4.2099 18.5611 7.64207 17.5308 7.95852C16.9143 8.14775 16.6665 7.26302 16.6171 6.73455C16.5382 5.88704 16.657 3.47316 16.6856 2.48199C16.7041 1.85487 16.7284 1.07341 16.3679 0.660619C15.7722 -0.0216022 13.745 0.0784954 12.6312 0.0842648C12.0002 0.0880148 11.231 0.121765 10.6485 0.269171C10.197 0.383115 9.3983 0.791583 9.45813 1.21909C9.53474 1.25947 9.78998 1.29698 9.90358 1.32871C10.2944 1.43544 10.6682 1.66881 10.8468 2.00054C11.1211 2.51199 11.1682 3.17373 11.1963 3.83144Z" fill="white"/>
</svg>
