<svg width="29" height="21" viewBox="0 0 29 21" fill="none" xmlns="http://www.w3.org/2000/svg">
<path fill-rule="evenodd" clip-rule="evenodd" d="M18.326 10.7159C18.2999 10.7428 16.0255 11.9543 15.7903 12.062C15.5027 12.2235 15.2151 12.385 14.9276 12.5466L13.2283 13.435C13.0715 13.5158 11.6075 14.3234 11.503 14.3503V5.97767L11.6598 6.08535C11.7905 6.11228 12.0519 6.27381 12.1827 6.32765C13.0715 6.83916 19.2671 10.1236 19.3194 10.2044L18.326 10.7159ZM0.000488281 8.53523V12.3312C0.0266303 12.385 0.0527723 13.5158 0.0527723 13.7042C0.15734 15.3464 0.261908 17.904 1.30759 19.2501C1.72586 19.8154 2.43169 20.2462 3.26824 20.4616C4.02636 20.65 4.96747 20.7308 5.77787 20.7577C7.89537 20.8923 10.405 20.9462 12.5748 20.9731C12.7839 20.9731 13.8296 20.9462 13.9603 21H15.3458C15.4766 20.9462 16.2608 20.9731 16.4438 20.9731C18.9796 20.9462 21.4892 20.8654 23.9988 20.7308C25.5935 20.6231 26.43 20.4616 27.3712 19.6001C27.7633 19.1962 27.9986 18.8463 28.2338 18.2001C28.443 17.6886 28.626 16.9617 28.7044 16.3695C28.8613 14.9965 28.9658 13.5158 28.992 12.0889C29.0181 9.88132 29.0181 5.46615 28.4691 3.44702C28.1293 2.26247 27.6587 1.37405 26.5869 0.808693C26.0118 0.485632 25.5412 0.377945 24.8092 0.324102C24.1296 0.243337 23.4237 0.216415 22.7179 0.189493C18.3522 0.00104112 13.9865 -0.0528024 9.5946 0.0548846C8.18293 0.108728 6.71898 0.13565 5.30731 0.243337C3.79108 0.351024 2.77154 0.377946 1.80429 1.21252C1.38601 1.58942 1.12459 1.88556 0.837032 2.53168C0.627896 3.0432 0.444902 3.6624 0.340334 4.2816C0.209624 4.92772 0.15734 5.70845 0.131198 6.35457C0.105056 6.73148 0.0789143 7.08146 0.0527723 7.43144C0.0527723 7.61989 0.0266303 8.42755 0.000488281 8.53523Z" fill="white"/>
</svg>
