<svg width="12" height="26" viewBox="0 0 12 26" fill="none" xmlns="http://www.w3.org/2000/svg">
<path fill-rule="evenodd" clip-rule="evenodd" d="M2.64242 12.6821V24.8493C2.64242 25.0244 2.78493 25.166 2.96068 25.166H7.48829C7.66318 25.166 7.80569 25.0244 7.80569 24.8493L7.80597 12.4836H11.0877C11.2528 12.4836 11.3898 12.3579 11.4045 12.194L11.7199 8.46791C11.7355 8.28329 11.5895 8.12406 11.4037 8.12406H7.80597V5.48114C7.80597 4.86123 8.30808 4.35901 8.92957 4.35901H11.4595C11.6343 4.35901 11.7766 4.21737 11.7766 4.04285L11.7768 0.317024C11.7768 0.141348 11.6343 0.000288466 11.4592 0.000288466L7.18478 0C4.6757 0 2.64242 2.02936 2.64242 4.53209V8.12406H0.378472C0.203011 8.12406 0.060791 8.26656 0.060791 8.44109V12.1669C0.060791 12.3423 0.202721 12.4836 0.378472 12.4836H2.64242V12.6821Z" fill="white"/>
</svg>
