<svg width="25" height="24" viewBox="0 0 25 24" fill="none" xmlns="http://www.w3.org/2000/svg">
<path fill-rule="evenodd" clip-rule="evenodd" d="M12.1497 16.0007C10.0641 16.0007 8.36792 14.3077 8.36792 12.2273C8.36792 10.146 10.0639 8.45361 12.1497 8.45361C14.2342 8.45361 15.9304 10.146 15.9304 12.2273C15.9304 14.3077 14.2342 16.0007 12.1497 16.0007Z" fill="white"/>
<path fill-rule="evenodd" clip-rule="evenodd" d="M24.0607 7.33086C24.0607 3.36243 20.8368 0.14604 16.8599 0.14604L7.35802 0.145752C3.38107 0.145752 0.157715 3.36243 0.157715 7.33086L0.158004 16.8147C0.158004 20.7829 3.38107 23.9999 7.35802 23.9999H16.8599C20.8371 23.9999 24.0604 20.7829 24.0604 16.8147L24.0607 7.33086ZM18.3974 4.53793C17.6207 4.53793 16.992 5.16563 16.992 5.94017C16.992 6.7147 17.6204 7.3424 18.3974 7.3424C19.1735 7.34211 19.8014 6.7147 19.8014 5.94017C19.8017 5.16563 19.1735 4.53793 18.3974 4.53793ZM12.1498 6.33565C8.8944 6.33565 6.24628 8.97829 6.24628 12.2273C6.24657 15.4748 8.8944 18.1178 12.1498 18.1178C15.4047 18.1175 18.052 15.4748 18.052 12.2273C18.052 8.97829 15.4047 6.33594 12.1498 6.33565Z" fill="white"/>
</svg>
